{
  "accessors": [
    {
      "bufferView": 2,
      "componentType": 5126,
      "count": 494,
      "max": [
        29.573299407958984,
        29.7362003326416,
        29.899999618530273
      ],
      "min": [
        -29.573299407958984,
        -29.7362003326416,
        -29.899999618530273
      ],
      "type": "VEC3"
    },
    {
      "bufferView": 2,
      "byteOffset": 5928,
      "componentType": 5126,
      "count": 494,
      "max": [
        0.9891449213027954,
        0.9945982098579407,
        1.0
      ],
      "min": [
        -0.9891449213027954,
        -0.9945982098579407,
        -1.0
      ],
      "type": "VEC3"
    },
    {
      "bufferView": 3,
      "componentType": 5126,
      "count": 494,
      "max": [
        1.0,
        1.0,
        0.05208743363618851,
        1.0
      ],
      "min": [
        -0.9999405145645142,
        -1.0,
        -0.052081357687711716,
        1.0
      ],
      "type": "VEC4"
    },
    {
      "bufferView": 1,
      "componentType": 5126,
      "count": 494,
      "max": [
        1.0,
        1.0
      ],
      "min": [
        0.0,
        0.0
      ],
      "type": "VEC2"
    },
    {
      "bufferView": 0,
      "componentType": 5125,
      "count": 2520,
      "type": "SCALAR"
    }
  ],
  "asset": {
    "extras": {
      "author": "TahirNilin (https://sketchfab.com/TahirNilin)",
      "license": "CC-BY-4.0 (http://creativecommons.org/licenses/by/4.0/)",
      "source": "https://sketchfab.com/3d-models/ball-33928b27e24b42dda77b4f6eb83172c0",
      "title": "Ball"
    },
    "generator": "Sketchfab-12.67.0",
    "version": "2.0"
  },
  "bufferViews": [
    {
      "buffer": 0,
      "byteLength": 10080,
      "name": "floatBufferViews",
      "target": 34963
    },
    {
      "buffer": 0,
      "byteLength": 3952,
      "byteOffset": 10080,
      "byteStride": 8,
      "name": "floatBufferViews",
      "target": 34962
    },
    {
      "buffer": 0,
      "byteLength": 11856,
      "byteOffset": 14032,
      "byteStride": 12,
      "name": "floatBufferViews",
      "target": 34962
    },
    {
      "buffer": 0,
      "byteLength": 7904,
      "byteOffset": 25888,
      "byteStride": 16,
      "name": "floatBufferViews",
      "target": 34962
    }
  ],
  "buffers": [
    {
      "byteLength": 33792,
      "uri": "balonGlass.bin"
    }
  ],
  "images": [
    {
      "uri": "texturesBalonGlass/wire_214229166_baseColor.png"
    },
    {
      "uri": "texturesBalonGlass/wire_214229166_normal.png"
    }
  ],
  "materials": [
    {
      "doubleSided": true,
      "name": "wire_214229166",
      "normalTexture": {
        "index": 1
      },
      "pbrMetallicRoughness": {
        "baseColorTexture": {
          "index": 0
        },
        "roughnessFactor": 0.0
      }
    }
  ],
  "meshes": [
    {
      "name": "Object_0",
      "primitives": [
        {
          "attributes": {
            "NORMAL": 1,
            "POSITION": 0,
            "TANGENT": 2,
            "TEXCOORD_0": 3
          },
          "indices": 4,
          "material": 0,
          "mode": 4
        }
      ]
    }
  ],
  "nodes": [
    {
      "children": [
        1
      ],
      "matrix": [
        1.0,
        0.0,
        0.0,
        0.0,
        0.0,
        2.220446049250313e-16,
        -1.0,
        0.0,
        0.0,
        1.0,
        2.220446049250313e-16,
        0.0,
        0.0,
        0.0,
        0.0,
        1.0
      ],
      "name": "Sketchfab_model"
    },
    {
      "children": [
        2
      ],
      "name": "c7e1056ee3fe4204a40ca3256ed2ef3e.obj.cleaner.materialmerger.gles"
    },
    {
      "mesh": 0,
      "name": "Object_2"
    }
  ],
  "samplers": [
    {
      "magFilter": 9729,
      "minFilter": 9987,
      "wrapS": 10497,
      "wrapT": 10497
    }
  ],
  "scene": 0,
  "scenes": [
    {
      "name": "Sketchfab_Scene",
      "nodes": [
        0
      ]
    }
  ],
  "textures": [
    {
      "sampler": 0,
      "source": 0
    },
    {
      "sampler": 0,
      "source": 1
    }
  ]
}
