{
  "accessors": [
    {
      "bufferView": 2,
      "componentType": 5126,
      "count": 65532,
      "max": [
        0.9127112627029419,
        0.9373875260353088,
        0.9358907341957092
      ],
      "min": [
        -0.9127413630485535,
        -0.9374001622200012,
        -0.9358783960342407
      ],
      "type": "VEC3"
    },
    {
      "bufferView": 2,
      "byteOffset": 786384,
      "componentType": 5126,
      "count": 65532,
      "max": [
        0.9999998807907104,
        0.999861478805542,
        0.9999464154243469
      ],
      "min": [
        -0.9999871850013733,
        -1.0,
        -1.0
      ],
      "type": "VEC3"
    },
    {
      "bufferView": 1,
      "componentType": 5126,
      "count": 65532,
      "max": [
        0.9873943328857422,
        0.4547681510448456
      ],
      "min": [
        0.012897973880171776,
        0.017613958567380905
      ],
      "type": "VEC2"
    },
    {
      "bufferView": 0,
      "componentType": 5125,
      "count": 324591,
      "type": "SCALAR"
    },
    {
      "bufferView": 2,
      "byteOffset": 1572768,
      "componentType": 5126,
      "count": 65533,
      "max": [
        0.9897893667221069,
        1.0037225484848022,
        1.0223702192306519
      ],
      "min": [
        -0.9897893667221069,
        -1.0037226676940918,
        -1.0029513835906982
      ],
      "type": "VEC3"
    },
    {
      "bufferView": 2,
      "byteOffset": 2359164,
      "componentType": 5126,
      "count": 65533,
      "max": [
        0.9999644160270691,
        1.0,
        1.0
      ],
      "min": [
        -0.9999998211860657,
        -1.0,
        -1.0
      ],
      "type": "VEC3"
    },
    {
      "bufferView": 1,
      "byteOffset": 524256,
      "componentType": 5126,
      "count": 65533,
      "max": [
        0.987394392490387,
        0.4547681510448456
      ],
      "min": [
        0.01294915284961462,
        0.017613958567380905
      ],
      "type": "VEC2"
    },
    {
      "bufferView": 0,
      "byteOffset": 1298364,
      "componentType": 5125,
      "count": 292311,
      "type": "SCALAR"
    },
    {
      "bufferView": 2,
      "byteOffset": 3145560,
      "componentType": 5126,
      "count": 65532,
      "max": [
        1.0032709836959839,
        1.0312098264694214,
        1.0223702192306519
      ],
      "min": [
        -1.0032708644866943,
        -1.0312098264694214,
        -1.0223702192306519
      ],
      "type": "VEC3"
    },
    {
      "bufferView": 2,
      "byteOffset": 3931944,
      "componentType": 5126,
      "count": 65532,
      "max": [
        0.9999969005584717,
        1.0,
        1.0
      ],
      "min": [
        -0.9999969005584717,
        -1.0,
        -0.9999984502792358
      ],
      "type": "VEC3"
    },
    {
      "bufferView": 1,
      "byteOffset": 1048520,
      "componentType": 5126,
      "count": 65532,
      "max": [
        0.987394392490387,
        0.4547681510448456
      ],
      "min": [
        0.012897973880171776,
        0.017613956704735756
      ],
      "type": "VEC2"
    },
    {
      "bufferView": 0,
      "byteOffset": 2467608,
      "componentType": 5125,
      "count": 293076,
      "type": "SCALAR"
    },
    {
      "bufferView": 2,
      "byteOffset": 4718328,
      "componentType": 5126,
      "count": 51480,
      "max": [
        1.0169981718063354,
        1.0252207517623901,
        1.0287866592407227
      ],
      "min": [
        -1.0169981718063354,
        -1.0312098264694214,
        -1.028786540031433
      ],
      "type": "VEC3"
    },
    {
      "bufferView": 2,
      "byteOffset": 5336088,
      "componentType": 5126,
      "count": 51480,
      "max": [
        0.9999969005584717,
        1.0,
        0.999994158744812
      ],
      "min": [
        -0.9999969005584717,
        -1.0,
        -0.9999919533729553
      ],
      "type": "VEC3"
    },
    {
      "bufferView": 1,
      "byteOffset": 1572776,
      "componentType": 5126,
      "count": 51480,
      "max": [
        0.987394392490387,
        0.4547681510448456
      ],
      "min": [
        0.017976831644773483,
        0.017613958567380905
      ],
      "type": "VEC2"
    },
    {
      "bufferView": 0,
      "byteOffset": 3639912,
      "componentType": 5125,
      "count": 195942,
      "type": "SCALAR"
    }
  ],
  "asset": {
    "extras": {
      "author": "tamminen (https://sketchfab.com/tamminen)",
      "license": "CC-BY-4.0 (http://creativecommons.org/licenses/by/4.0/)",
      "source": "https://sketchfab.com/3d-models/icosub-4a97eed274614afe964698547cf4ef73",
      "title": "IcoSub"
    },
    "generator": "Sketchfab-14.21.0",
    "version": "2.0"
  },
  "bufferViews": [
    {
      "buffer": 0,
      "byteLength": 4423680,
      "name": "floatBufferViews",
      "target": 34963
    },
    {
      "buffer": 0,
      "byteLength": 1984616,
      "byteOffset": 4423680,
      "byteStride": 8,
      "name": "floatBufferViews",
      "target": 34962
    },
    {
      "buffer": 0,
      "byteLength": 5953848,
      "byteOffset": 6408296,
      "byteStride": 12,
      "name": "floatBufferViews",
      "target": 34962
    }
  ],
  "buffers": [
    {
      "byteLength": 12362144,
      "uri": "balonPolyhedra.bin"
    }
  ],
  "materials": [
    {
      "name": "Scene_-_Root",
      "pbrMetallicRoughness": {
        "baseColorFactor": [
          0.028952469188477523,
          0.028952469188477523,
          0.028952469188477523,
          1.0
        ],
        "roughnessFactor": 0.1386670892711292
      }
    }
  ],
  "meshes": [
    {
      "name": "Object_0",
      "primitives": [
        {
          "attributes": {
            "NORMAL": 1,
            "POSITION": 0,
            "TEXCOORD_0": 2
          },
          "indices": 3,
          "material": 0,
          "mode": 4
        }
      ]
    },
    {
      "name": "Object_1",
      "primitives": [
        {
          "attributes": {
            "NORMAL": 5,
            "POSITION": 4,
            "TEXCOORD_0": 6
          },
          "indices": 7,
          "material": 0,
          "mode": 4
        }
      ]
    },
    {
      "name": "Object_2",
      "primitives": [
        {
          "attributes": {
            "NORMAL": 9,
            "POSITION": 8,
            "TEXCOORD_0": 10
          },
          "indices": 11,
          "material": 0,
          "mode": 4
        }
      ]
    },
    {
      "name": "Object_3",
      "primitives": [
        {
          "attributes": {
            "NORMAL": 13,
            "POSITION": 12,
            "TEXCOORD_0": 14
          },
          "indices": 15,
          "material": 0,
          "mode": 4
        }
      ]
    }
  ],
  "nodes": [
    {
      "children": [
        1
      ],
      "matrix": [
        1.0,
        0.0,
        0.0,
        0.0,
        0.0,
        2.220446049250313e-16,
        -1.0,
        0.0,
        0.0,
        1.0,
        2.220446049250313e-16,
        0.0,
        0.0,
        0.0,
        0.0,
        1.0
      ],
      "name": "Sketchfab_model"
    },
    {
      "children": [
        2
      ],
      "name": "root"
    },
    {
      "children": [
        3
      ],
      "matrix": [
        1.0,
        0.0,
        0.0,
        0.0,
        0.0,
        2.220446049250313e-16,
        1.0,
        0.0,
        0.0,
        -1.0,
        2.220446049250313e-16,
        0.0,
        0.0,
        0.0,
        0.0,
        1.0
      ],
      "name": "GLTF_SceneRootNode"
    },
    {
      "children": [
        4,
        5,
        6,
        7
      ],
      "name": "Icosphere_0"
    },
    {
      "mesh": 0,
      "name": "Object_4"
    },
    {
      "mesh": 1,
      "name": "Object_5"
    },
    {
      "mesh": 2,
      "name": "Object_6"
    },
    {
      "mesh": 3,
      "name": "Object_7"
    }
  ],
  "scene": 0,
  "scenes": [
    {
      "name": "Sketchfab_Scene",
      "nodes": [
        0
      ]
    }
  ]
}
