{
  "accessors": [
    {
      "bufferView": 2,
      "componentType": 5126,
      "count": 18856,
      "max": [
        22.593685150146484,
        21.978134155273438,
        22.04589080810547
      ],
      "min": [
        -22.593278884887695,
        -21.455204010009766,
        -22.194652557373047
      ],
      "type": "VEC3"
    },
    {
      "bufferView": 2,
      "byteOffset": 226272,
      "componentType": 5126,
      "count": 18856,
      "max": [
        0.9999686479568481,
        0.9999473690986633,
        0.9999827742576599
      ],
      "min": [
        -0.9999702572822571,
        -0.9999958872795105,
        -0.9999995827674866
      ],
      "type": "VEC3"
    },
    {
      "bufferView": 3,
      "componentType": 5126,
      "count": 18856,
      "max": [
        1.0,
        1.0,
        1.0,
        1.0
      ],
      "min": [
        -1.0,
        -1.0,
        -1.0,
        -1.0
      ],
      "type": "VEC4"
    },
    {
      "bufferView": 1,
      "componentType": 5126,
      "count": 18856,
      "max": [
        0.9536910057067871,
        1.1014009714126587
      ],
      "min": [
        -0.1985509991645813,
        -0.10140100121498108
      ],
      "type": "VEC2"
    },
    {
      "bufferView": 0,
      "componentType": 5125,
      "count": 110592,
      "type": "SCALAR"
    }
  ],
  "asset": {
    "extras": {
      "author": "israfitul (https://sketchfab.com/israfitul)",
      "license": "CC-BY-4.0 (http://creativecommons.org/licenses/by/4.0/)",
      "source": "https://sketchfab.com/3d-models/shell-light-ball-0ef01b42b7e1456c8b79a25f805ab71a",
      "title": "shell light ball"
    },
    "generator": "Sketchfab-15.22.0",
    "version": "2.0"
  },
  "bufferViews": [
    {
      "buffer": 0,
      "byteLength": 442368,
      "name": "floatBufferViews",
      "target": 34963
    },
    {
      "buffer": 0,
      "byteLength": 150848,
      "byteOffset": 442368,
      "byteStride": 8,
      "name": "floatBufferViews",
      "target": 34962
    },
    {
      "buffer": 0,
      "byteLength": 452544,
      "byteOffset": 593216,
      "byteStride": 12,
      "name": "floatBufferViews",
      "target": 34962
    },
    {
      "buffer": 0,
      "byteLength": 301696,
      "byteOffset": 1045760,
      "byteStride": 16,
      "name": "floatBufferViews",
      "target": 34962
    }
  ],
  "buffers": [
    {
      "byteLength": 1347456,
      "uri": "balonShell.bin"
    }
  ],
  "images": [
    {
      "uri": "texturesBalonShell/DefaultMaterial_metallicRoughness.png"
    },
    {
      "uri": "texturesBalonShell/DefaultMaterial_normal.png"
    }
  ],
  "materials": [
    {
      "doubleSided": true,
      "name": "DefaultMaterial",
      "normalTexture": {
        "index": 1
      },
      "pbrMetallicRoughness": {
        "baseColorFactor": [
          0.6,
          0.6,
          0.6,
          1.0
        ],
        "metallicRoughnessTexture": {
          "index": 0
        },
        "roughnessFactor": 0.20786744006469304
      }
    }
  ],
  "meshes": [
    {
      "name": "defaultMaterial",
      "primitives": [
        {
          "attributes": {
            "NORMAL": 1,
            "POSITION": 0,
            "TANGENT": 2,
            "TEXCOORD_0": 3
          },
          "indices": 4,
          "material": 0,
          "mode": 4
        }
      ]
    }
  ],
  "nodes": [
    {
      "children": [
        1
      ],
      "matrix": [
        -0.0001678682959468979,
        -0.0293090885054198,
        -6.507924977898718e-18,
        0.0,
        -8.302589063656257e-18,
        -6.460478432352967e-18,
        0.02930956892669201,
        0.0,
        -0.0293090885054198,
        0.0001678682959468979,
        -8.265450582323489e-18,
        0.0,
        0.0,
        0.0,
        0.0,
        1.0
      ],
      "name": "Sketchfab_model"
    },
    {
      "children": [
        2
      ],
      "matrix": [
        1.0,
        0.0,
        0.0,
        0.0,
        0.0,
        -4.371139006309477e-08,
        0.999999999999999,
        0.0,
        0.0,
        -0.999999999999999,
        -4.371139006309477e-08,
        0.0,
        0.0,
        0.0,
        0.0,
        1.0
      ],
      "name": "Collada visual scene group"
    },
    {
      "children": [
        3
      ],
      "matrix": [
        1.0,
        0.0,
        0.0,
        0.0,
        0.0,
        0.0,
        -1.0,
        0.0,
        0.0,
        1.0,
        0.0,
        0.0,
        0.0,
        0.0,
        0.0,
        1.0
      ],
      "name": "GeoSphere001"
    },
    {
      "mesh": 0,
      "name": "defaultMaterial"
    }
  ],
  "samplers": [
    {
      "magFilter": 9729,
      "minFilter": 9987,
      "wrapS": 10497,
      "wrapT": 10497
    }
  ],
  "scene": 0,
  "scenes": [
    {
      "name": "Sketchfab_Scene",
      "nodes": [
        0
      ]
    }
  ],
  "textures": [
    {
      "sampler": 0,
      "source": 0
    },
    {
      "sampler": 0,
      "source": 1
    }
  ]
}
