{
  "accessors": [
    {
      "bufferView": 2,
      "componentType": 5126,
      "count": 26905,
      "max": [
        0.9187034368515015,
        0.9174363017082214,
        0.8862893581390381
      ],
      "min": [
        -0.9187034368515015,
        -0.9174363017082214,
        -0.8862894177436829
      ],
      "type": "VEC3"
    },
    {
      "bufferView": 2,
      "byteOffset": 322860,
      "componentType": 5126,
      "count": 26905,
      "max": [
        0.9999717473983765,
        1.0,
        0.9991398453712463
      ],
      "min": [
        -0.9999717473983765,
        -1.0,
        -0.9991397857666016
      ],
      "type": "VEC3"
    },
    {
      "bufferView": 1,
      "componentType": 5126,
      "count": 26905,
      "max": [
        0.9772704839706421,
        0.4330154061317444
      ],
      "min": [
        0.022729918360710144,
        0.03936665132641792
      ],
      "type": "VEC2"
    },
    {
      "bufferView": 0,
      "componentType": 5125,
      "count": 155520,
      "type": "SCALAR"
    },
    {
      "bufferView": 2,
      "byteOffset": 645720,
      "componentType": 5126,
      "count": 9646,
      "max": [
        0.9079810976982117,
        0.8772276639938354,
        0.9250863790512085
      ],
      "min": [
        -0.907981276512146,
        -0.8772276043891907,
        -0.9250863790512085
      ],
      "type": "VEC3"
    },
    {
      "bufferView": 2,
      "byteOffset": 761472,
      "componentType": 5126,
      "count": 9646,
      "max": [
        0.9991362690925598,
        0.9983918070793152,
        1.0
      ],
      "min": [
        -0.9991362690925598,
        -0.9983918070793152,
        -1.0
      ],
      "type": "VEC3"
    },
    {
      "bufferView": 1,
      "byteOffset": 215240,
      "componentType": 5126,
      "count": 9646,
      "max": [
        1.0,
        0.472382128238678
      ],
      "min": [
        0.0,
        0.0
      ],
      "type": "VEC2"
    },
    {
      "bufferView": 0,
      "byteOffset": 622080,
      "componentType": 5125,
      "count": 51840,
      "type": "SCALAR"
    }
  ],
  "asset": {
    "extras": {
      "author": "LukeModels75 (https://sketchfab.com/lucasgamerbdf)",
      "license": "CC-BY-NC-4.0 (http://creativecommons.org/licenses/by-nc/4.0/)",
      "source": "https://sketchfab.com/3d-models/realistic-soccer-ball-68057e2c27414652baeca77cd5e0a20b",
      "title": "Realistic Soccer Ball"
    },
    "generator": "Sketchfab-16.29.0",
    "version": "2.0"
  },
  "bufferViews": [
    {
      "buffer": 0,
      "byteLength": 829440,
      "name": "floatBufferViews",
      "target": 34963
    },
    {
      "buffer": 0,
      "byteLength": 292408,
      "byteOffset": 829440,
      "byteStride": 8,
      "name": "floatBufferViews",
      "target": 34962
    },
    {
      "buffer": 0,
      "byteLength": 877224,
      "byteOffset": 1121848,
      "byteStride": 12,
      "name": "floatBufferViews",
      "target": 34962
    }
  ],
  "buffers": [
    {
      "byteLength": 1999072,
      "uri": "balon3d.bin"
    }
  ],
  "extensionsUsed": [
    "KHR_materials_specular"
  ],
  "materials": [
    {
      "doubleSided": true,
      "extensions": {
        "KHR_materials_specular": {
          "specularColorFactor": [
            1.0,
            1.0,
            1.0
          ],
          "specularFactor": 0.5043824895466348
        }
      },
      "name": "White.001",
      "pbrMetallicRoughness": {
        "baseColorFactor": [
          0.4921919762041179,
          0.4921919762041179,
          0.4921919762041179,
          1.0
        ],
        "metallicFactor": 0.0,
        "roughnessFactor": 0.42514415282027523
      }
    },
    {
      "doubleSided": true,
      "name": "Black.001",
      "pbrMetallicRoughness": {
        "baseColorFactor": [
          0.0,
          0.0,
          0.0,
          1.0
        ],
        "metallicFactor": 0.0,
        "roughnessFactor": 0.19352439931245502
      }
    }
  ],
  "meshes": [
    {
      "name": "Icosphere_White.001_0",
      "primitives": [
        {
          "attributes": {
            "NORMAL": 1,
            "POSITION": 0,
            "TEXCOORD_0": 2
          },
          "indices": 3,
          "material": 0,
          "mode": 4
        }
      ]
    },
    {
      "name": "Icosphere_Black.001_0",
      "primitives": [
        {
          "attributes": {
            "NORMAL": 5,
            "POSITION": 4,
            "TEXCOORD_0": 6
          },
          "indices": 7,
          "material": 1,
          "mode": 4
        }
      ]
    }
  ],
  "nodes": [
    {
      "children": [
        1
      ],
      "matrix": [
        1.0,
        0.0,
        0.0,
        0.0,
        0.0,
        2.220446049250313e-16,
        -1.0,
        0.0,
        0.0,
        1.0,
        2.220446049250313e-16,
        0.0,
        0.0,
        0.0,
        0.0,
        1.0
      ],
      "name": "Sketchfab_model"
    },
    {
      "children": [
        2
      ],
      "matrix": [
        0.009999999776482582,
        0.0,
        0.0,
        0.0,
        0.0,
        0.0,
        0.009999999776482582,
        0.0,
        0.0,
        -0.009999999776482582,
        0.0,
        0.0,
        0.0,
        0.0,
        0.0,
        1.0
      ],
      "name": "05d6a90be31a48ca9248493556d419c5.fbx"
    },
    {
      "children": [
        3
      ],
      "name": "RootNode"
    },
    {
      "children": [
        4,
        5
      ],
      "matrix": [
        89.75765624218384,
        -38.898997541993566,
        -20.746871138002998,
        0.0,
        -5.221432955748534,
        37.34893919118207,
        -92.61636925135404,
        0.0,
        43.77557214416243,
        84.21355987852364,
        31.49244496952714,
        0.0,
        0.0,
        100.0,
        0.0,
        1.0
      ],
      "name": "Icosphere"
    },
    {
      "mesh": 0,
      "name": "Icosphere_White.001_0"
    },
    {
      "mesh": 1,
      "name": "Icosphere_Black.001_0"
    }
  ],
  "scene": 0,
  "scenes": [
    {
      "name": "Sketchfab_Scene",
      "nodes": [
        0
      ]
    }
  ]
}
